<?xml version="1.0" encoding="UTF-8"?>
<svg width="128" height="128" viewBox="0 0 128 128" fill="none" xmlns="http://www.w3.org/2000/svg">
  <defs>
    <linearGradient id="gradient" x1="0" y1="0" x2="128" y2="128" gradientUnits="userSpaceOnUse">
      <stop offset="0%" stop-color="#6366F1" />
      <stop offset="100%" stop-color="#22D3EE" />
    </linearGradient>
    <filter id="shadow" x="0" y="0" width="128" height="128" filterUnits="userSpaceOnUse" color-interpolation-filters="sRGB">
      <feOffset dy="4" />
      <feGaussianBlur stdDeviation="6" result="blur" />
      <feColorMatrix in="blur" type="matrix" values="0 0 0 0 0  0 0 0 0 0  0 0 0 0 0  0 0 0 0.15 0" />
      <feBlend in="SourceGraphic" />
    </filter>
  </defs>
  <rect width="112" height="112" x="8" y="8" rx="28" fill="#F1F5F9" filter="url(#shadow)" />
  <rect width="96" height="96" x="16" y="16" rx="24" fill="url(#gradient)" />
  <path d="M64 36c-16.569 0-30 13.431-30 30s13.431 30 30 30 30-13.431 30-30-13.431-30-30-30zm0 8c12.15 0 22 9.85 22 22s-9.85 22-22 22-22-9.85-22-22 9.85-22 22-22z" fill="#1E1B4B" opacity="0.9" />
  <rect x="60" y="28" width="8" height="14" rx="4" fill="#1E1B4B" opacity="0.9" />
  <path d="M68 66V44h-8v24h23v-8z" fill="#F8FAFC" />
  <path d="M48.5 86.5c2.4 3.9 5.5 7.2 9.2 9.6 3.7-6.1 9.6-10.7 16.5-12.8-2.5-2.1-5.7-3.3-9.2-3.3-6.76 0-12.5 4.47-16.5 6.5z" fill="#F8FAFC" opacity="0.85" />
</svg>
